<mxfile host="app.diagrams.net" modified="2023-04-15T01:25:06.528Z" agent="Mozilla/5.0 (Windows NT 10.0; Win64; x64) AppleWebKit/537.36 (KHTML, like Gecko) Chrome/112.0.0.0 Safari/537.36" etag="MmQ2vOJbFE2Iyss54yqo" version="21.1.8" type="device">
  <diagram name="Page-1" id="8auwdK0r_wwj2gI-ZMmv">
    <mxGraphModel dx="1050" dy="585" grid="1" gridSize="10" guides="1" tooltips="1" connect="1" arrows="1" fold="1" page="1" pageScale="1" pageWidth="900" pageHeight="1600" math="0" shadow="0">
      <root>
        <mxCell id="0" />
        <mxCell id="1" parent="0" />
        <mxCell id="0z6uJKFieUafJeMRQ6us-126" value="" style="whiteSpace=wrap;html=1;" vertex="1" parent="1">
          <mxGeometry x="10" y="10" width="880" height="530" as="geometry" />
        </mxCell>
        <mxCell id="0z6uJKFieUafJeMRQ6us-127" value="&lt;b&gt;Amenities Generalization&lt;/b&gt;" style="rounded=1;whiteSpace=wrap;html=1;fillColor=#ffff88;strokeColor=#36393d;" vertex="1" parent="1">
          <mxGeometry x="50" y="20" width="120" height="60" as="geometry" />
        </mxCell>
        <mxCell id="0z6uJKFieUafJeMRQ6us-128" value="&lt;b&gt;Nearby Attractions and Entertainment&lt;/b&gt;" style="rounded=1;whiteSpace=wrap;html=1;fillColor=#cdeb8b;strokeColor=#36393d;" vertex="1" parent="1">
          <mxGeometry x="50" y="100" width="120" height="60" as="geometry" />
        </mxCell>
        <mxCell id="0z6uJKFieUafJeMRQ6us-129" value="&lt;b&gt;Price Prediction Modeling and Analysis&lt;/b&gt;" style="rounded=1;whiteSpace=wrap;html=1;fillColor=#cce5ff;strokeColor=#36393d;" vertex="1" parent="1">
          <mxGeometry x="720" y="170" width="120" height="60" as="geometry" />
        </mxCell>
        <mxCell id="0z6uJKFieUafJeMRQ6us-130" value="" style="endArrow=classic;html=1;rounded=0;entryX=0;entryY=0.5;entryDx=0;entryDy=0;" edge="1" parent="1" target="0z6uJKFieUafJeMRQ6us-132">
          <mxGeometry relative="1" as="geometry">
            <mxPoint x="170" y="50" as="sourcePoint" />
            <mxPoint x="250" y="49.5" as="targetPoint" />
          </mxGeometry>
        </mxCell>
        <mxCell id="0z6uJKFieUafJeMRQ6us-131" value="listings.csv" style="edgeLabel;resizable=0;html=1;align=left;verticalAlign=middle;fontStyle=1" connectable="0" vertex="1" parent="0z6uJKFieUafJeMRQ6us-130">
          <mxGeometry relative="1" as="geometry">
            <mxPoint x="-55" as="offset" />
          </mxGeometry>
        </mxCell>
        <mxCell id="0z6uJKFieUafJeMRQ6us-132" value="&lt;div&gt;&lt;b&gt;A1- AirBnB Amenities Generalization Nashville.ipynb&lt;/b&gt;&lt;/div&gt;" style="rounded=1;whiteSpace=wrap;html=1;fillColor=#fa6800;strokeColor=#C73500;fontColor=#000000;" vertex="1" parent="1">
          <mxGeometry x="300" y="20" width="120" height="60" as="geometry" />
        </mxCell>
        <mxCell id="0z6uJKFieUafJeMRQ6us-133" value="" style="endArrow=classic;html=1;rounded=0;" edge="1" parent="1">
          <mxGeometry relative="1" as="geometry">
            <mxPoint x="420" y="49.5" as="sourcePoint" />
            <mxPoint x="780" y="170" as="targetPoint" />
            <Array as="points">
              <mxPoint x="780" y="50" />
            </Array>
          </mxGeometry>
        </mxCell>
        <mxCell id="0z6uJKFieUafJeMRQ6us-134" value="" style="endArrow=classic;html=1;rounded=0;" edge="1" parent="1">
          <mxGeometry relative="1" as="geometry">
            <mxPoint x="170" y="130" as="sourcePoint" />
            <mxPoint x="300" y="130" as="targetPoint" />
          </mxGeometry>
        </mxCell>
        <mxCell id="0z6uJKFieUafJeMRQ6us-135" value="• listings.csv&lt;br style=&quot;font-size: 10px;&quot;&gt;&lt;br style=&quot;font-size: 10px;&quot;&gt;•&amp;nbsp;Yelp Fusion&lt;br style=&quot;font-size: 10px;&quot;&gt;API Business Search" style="edgeLabel;resizable=0;html=1;align=left;verticalAlign=middle;fontSize=10;labelBorderColor=none;fontStyle=1" connectable="0" vertex="1" parent="0z6uJKFieUafJeMRQ6us-134">
          <mxGeometry relative="1" as="geometry">
            <mxPoint x="-55" as="offset" />
          </mxGeometry>
        </mxCell>
        <mxCell id="0z6uJKFieUafJeMRQ6us-136" value="&lt;div&gt;&lt;b&gt;B1 - Get Nearby Entertainment Nashville.ipynb&lt;/b&gt;&lt;/div&gt;" style="rounded=1;whiteSpace=wrap;html=1;fillColor=#fa6800;strokeColor=#C73500;fontColor=#000000;" vertex="1" parent="1">
          <mxGeometry x="300" y="100" width="120" height="60" as="geometry" />
        </mxCell>
        <mxCell id="0z6uJKFieUafJeMRQ6us-137" value="" style="html=1;shadow=0;dashed=0;align=center;verticalAlign=middle;shape=mxgraph.arrows2.twoWayArrow;dy=0.65;dx=22;rotation=90;aspect=fixed;fillColor=#1ba1e2;fontColor=#ffffff;strokeColor=#006EAF;" vertex="1" parent="1">
          <mxGeometry x="335" y="170" width="50" height="30" as="geometry" />
        </mxCell>
        <mxCell id="0z6uJKFieUafJeMRQ6us-138" value="&lt;div&gt;• AirBnB Nearby&amp;nbsp;&lt;/div&gt;&lt;div&gt;Entertainment&amp;nbsp;&lt;/div&gt;&lt;div&gt;Processed&amp;nbsp;&lt;/div&gt;&lt;div&gt;Batch Files&lt;/div&gt;" style="edgeLabel;resizable=0;html=1;align=center;verticalAlign=middle;fontStyle=1" connectable="0" vertex="1" parent="1">
          <mxGeometry x="359.9995833368055" y="209.9999986111227" as="geometry">
            <mxPoint x="2" y="35" as="offset" />
          </mxGeometry>
        </mxCell>
        <mxCell id="0z6uJKFieUafJeMRQ6us-139" value="" style="endArrow=classic;html=1;rounded=0;" edge="1" parent="1">
          <mxGeometry relative="1" as="geometry">
            <mxPoint x="420" y="129.5" as="sourcePoint" />
            <mxPoint x="530" y="130" as="targetPoint" />
          </mxGeometry>
        </mxCell>
        <mxCell id="0z6uJKFieUafJeMRQ6us-140" value="Yelp &lt;br&gt;Fetched &lt;br&gt;Batch Files" style="edgeLabel;resizable=0;html=1;align=left;verticalAlign=middle;fontStyle=1" connectable="0" vertex="1" parent="0z6uJKFieUafJeMRQ6us-139">
          <mxGeometry relative="1" as="geometry">
            <mxPoint x="-30" as="offset" />
          </mxGeometry>
        </mxCell>
        <mxCell id="0z6uJKFieUafJeMRQ6us-141" value="&lt;div&gt;&lt;b&gt;B2 - Nearby Entertainment Nashville Post Processing.ipynb&lt;/b&gt;&lt;/div&gt;" style="rounded=1;whiteSpace=wrap;html=1;fillColor=#fa6800;strokeColor=#C73500;fontColor=#000000;" vertex="1" parent="1">
          <mxGeometry x="530" y="100" width="120" height="60" as="geometry" />
        </mxCell>
        <mxCell id="0z6uJKFieUafJeMRQ6us-142" value="" style="endArrow=classic;html=1;rounded=0;" edge="1" parent="1">
          <mxGeometry relative="1" as="geometry">
            <mxPoint x="650" y="129.5" as="sourcePoint" />
            <mxPoint x="780" y="170" as="targetPoint" />
            <Array as="points">
              <mxPoint x="780" y="130" />
            </Array>
          </mxGeometry>
        </mxCell>
        <mxCell id="0z6uJKFieUafJeMRQ6us-143" value="&lt;b&gt;nearby &lt;br&gt;entertainment &lt;br&gt;nashville.csv&lt;/b&gt;" style="edgeLabel;resizable=0;html=1;align=left;verticalAlign=middle;" connectable="0" vertex="1" parent="0z6uJKFieUafJeMRQ6us-142">
          <mxGeometry relative="1" as="geometry">
            <mxPoint x="-55" as="offset" />
          </mxGeometry>
        </mxCell>
        <mxCell id="0z6uJKFieUafJeMRQ6us-144" value="" style="endArrow=classic;html=1;rounded=0;exitX=0.5;exitY=1;exitDx=0;exitDy=0;" edge="1" parent="1" source="0z6uJKFieUafJeMRQ6us-129">
          <mxGeometry relative="1" as="geometry">
            <mxPoint x="150" y="379.5" as="sourcePoint" />
            <mxPoint x="780" y="330" as="targetPoint" />
          </mxGeometry>
        </mxCell>
        <mxCell id="0z6uJKFieUafJeMRQ6us-145" value="• listings.csv &lt;br&gt;• calendar.csv&lt;br&gt;• OHE amenities nashville.csv &lt;br&gt;• nearby entertainment nashville.csv" style="edgeLabel;resizable=0;html=1;align=left;verticalAlign=middle;fontStyle=1;imageWidth=24;" connectable="0" vertex="1" parent="0z6uJKFieUafJeMRQ6us-144">
          <mxGeometry relative="1" as="geometry">
            <mxPoint x="-90" y="-10" as="offset" />
          </mxGeometry>
        </mxCell>
        <mxCell id="0z6uJKFieUafJeMRQ6us-146" value="OHE amenities nashville.csv" style="edgeLabel;resizable=0;html=1;align=left;verticalAlign=middle;fontStyle=1" connectable="0" vertex="1" parent="1">
          <mxGeometry x="469.9995833368055" y="49.99999861112269" as="geometry" />
        </mxCell>
        <mxCell id="0z6uJKFieUafJeMRQ6us-147" value="&lt;b&gt;D1 - Price Prediction Model Data Prep and EDA.ipynb&lt;/b&gt;" style="rounded=1;whiteSpace=wrap;html=1;fillColor=#fa6800;strokeColor=#C73500;fontColor=#000000;" vertex="1" parent="1">
          <mxGeometry x="720" y="330" width="120" height="60" as="geometry" />
        </mxCell>
        <mxCell id="0z6uJKFieUafJeMRQ6us-148" value="" style="endArrow=classic;html=1;rounded=0;" edge="1" parent="1">
          <mxGeometry relative="1" as="geometry">
            <mxPoint x="720" y="359.5" as="sourcePoint" />
            <mxPoint x="530" y="360" as="targetPoint" />
          </mxGeometry>
        </mxCell>
        <mxCell id="0z6uJKFieUafJeMRQ6us-149" value="train test data nashville.csv" style="edgeLabel;resizable=0;html=1;align=center;verticalAlign=middle;fontStyle=1" connectable="0" vertex="1" parent="0z6uJKFieUafJeMRQ6us-148">
          <mxGeometry relative="1" as="geometry">
            <mxPoint x="5" as="offset" />
          </mxGeometry>
        </mxCell>
        <mxCell id="0z6uJKFieUafJeMRQ6us-150" value="&lt;b&gt;D2 - Price Prediction Modeling.ipynb&lt;/b&gt;" style="rounded=1;whiteSpace=wrap;html=1;fillColor=#fa6800;strokeColor=#C73500;fontColor=#000000;" vertex="1" parent="1">
          <mxGeometry x="410" y="330" width="120" height="60" as="geometry" />
        </mxCell>
        <mxCell id="0z6uJKFieUafJeMRQ6us-151" value="" style="endArrow=classic;html=1;rounded=0;" edge="1" parent="1">
          <mxGeometry relative="1" as="geometry">
            <mxPoint x="410" y="359.5" as="sourcePoint" />
            <mxPoint x="240" y="360" as="targetPoint" />
          </mxGeometry>
        </mxCell>
        <mxCell id="0z6uJKFieUafJeMRQ6us-152" value="&lt;b&gt;• model preds &lt;br&gt;nashville.csv&lt;br&gt;&lt;br&gt;• feature importances &lt;br&gt;nashville.csv&lt;/b&gt;" style="edgeLabel;resizable=0;html=1;align=right;verticalAlign=middle;" connectable="0" vertex="1" parent="0z6uJKFieUafJeMRQ6us-151">
          <mxGeometry relative="1" as="geometry">
            <mxPoint x="60" as="offset" />
          </mxGeometry>
        </mxCell>
        <mxCell id="0z6uJKFieUafJeMRQ6us-153" value="&lt;b&gt;D3 - Property Feature Analysis.ipynb&lt;/b&gt;" style="rounded=1;whiteSpace=wrap;html=1;fillColor=#fa6800;strokeColor=#C73500;fontColor=#000000;" vertex="1" parent="1">
          <mxGeometry x="120" y="330" width="120" height="60" as="geometry" />
        </mxCell>
        <mxCell id="0z6uJKFieUafJeMRQ6us-154" value="" style="endArrow=classic;html=1;rounded=0;" edge="1" parent="1">
          <mxGeometry relative="1" as="geometry">
            <mxPoint x="120" y="359.5" as="sourcePoint" />
            <mxPoint x="80" y="360" as="targetPoint" />
          </mxGeometry>
        </mxCell>
        <mxCell id="0z6uJKFieUafJeMRQ6us-155" value="&lt;b&gt;End&lt;/b&gt;" style="rounded=1;whiteSpace=wrap;html=1;fillColor=#ffcccc;strokeColor=#36393d;" vertex="1" parent="1">
          <mxGeometry x="40" y="350" width="40" height="20" as="geometry" />
        </mxCell>
        <mxCell id="0z6uJKFieUafJeMRQ6us-181" value="&lt;b&gt;Topic Modeling&lt;/b&gt;" style="rounded=1;whiteSpace=wrap;html=1;fillColor=#eeeeee;strokeColor=#36393d;" vertex="1" parent="1">
          <mxGeometry x="50" y="470" width="120" height="60" as="geometry" />
        </mxCell>
        <mxCell id="0z6uJKFieUafJeMRQ6us-182" value="&lt;b&gt;E1 -&amp;nbsp;699 Review TopicModeling.ipynb&lt;/b&gt;" style="rounded=1;whiteSpace=wrap;html=1;fillColor=#fa6800;strokeColor=#C73500;fontColor=#000000;" vertex="1" parent="1">
          <mxGeometry x="280" y="470" width="120" height="60" as="geometry" />
        </mxCell>
        <mxCell id="0z6uJKFieUafJeMRQ6us-183" value="" style="endArrow=classic;html=1;rounded=0;" edge="1" parent="1">
          <mxGeometry relative="1" as="geometry">
            <mxPoint x="170" y="499" as="sourcePoint" />
            <mxPoint x="280" y="499" as="targetPoint" />
          </mxGeometry>
        </mxCell>
        <mxCell id="0z6uJKFieUafJeMRQ6us-184" value="• listings.csv&lt;br&gt;• reviews.csv" style="edgeLabel;resizable=0;html=1;align=left;verticalAlign=middle;fontStyle=1" connectable="0" vertex="1" parent="0z6uJKFieUafJeMRQ6us-183">
          <mxGeometry relative="1" as="geometry">
            <mxPoint x="-45" y="1" as="offset" />
          </mxGeometry>
        </mxCell>
        <mxCell id="0z6uJKFieUafJeMRQ6us-185" value="" style="endArrow=classic;html=1;rounded=0;" edge="1" parent="1">
          <mxGeometry relative="1" as="geometry">
            <mxPoint x="400" y="499.5" as="sourcePoint" />
            <mxPoint x="500" y="499.5" as="targetPoint" />
          </mxGeometry>
        </mxCell>
        <mxCell id="0z6uJKFieUafJeMRQ6us-186" value="Output Files" style="edgeLabel;resizable=0;html=1;align=center;verticalAlign=middle;fontStyle=1" connectable="0" vertex="1" parent="0z6uJKFieUafJeMRQ6us-185">
          <mxGeometry relative="1" as="geometry" />
        </mxCell>
        <mxCell id="0z6uJKFieUafJeMRQ6us-187" value="&lt;b&gt;End&lt;/b&gt;" style="rounded=1;whiteSpace=wrap;html=1;fillColor=#ffcccc;strokeColor=#36393d;" vertex="1" parent="1">
          <mxGeometry x="500" y="490" width="40" height="20" as="geometry" />
        </mxCell>
      </root>
    </mxGraphModel>
  </diagram>
</mxfile>
